<?xml version="1.0" encoding="UTF-8"?>
<!DOCTYPE svg PUBLIC "-//W3C//DTD SVG 1.1//EN" "http://www.w3.org/Graphics/SVG/1.1/DTD/svg11.dtd">
<svg version="1.2" width="262.5mm" height="371.25mm" viewBox="0 0 26250 37125" preserveAspectRatio="xMidYMid" fill-rule="evenodd" stroke-width="28.222" stroke-linejoin="round" xmlns="http://www.w3.org/2000/svg" xmlns:ooo="http://xml.openoffice.org/svg/export" xmlns:xlink="http://www.w3.org/1999/xlink" xmlns:presentation="http://sun.com/xmlns/staroffice/presentation" xmlns:smil="http://www.w3.org/2001/SMIL20/" xmlns:anim="urn:oasis:names:tc:opendocument:xmlns:animation:1.0" xml:space="preserve">
 <defs class="ClipPathGroup">
  <clipPath id="presentation_clip_path" clipPathUnits="userSpaceOnUse">
   <rect x="0" y="0" width="26250" height="37125"/>
  </clipPath>
  <clipPath id="presentation_clip_path_shrink" clipPathUnits="userSpaceOnUse">
   <rect x="26" y="37" width="26198" height="37051"/>
  </clipPath>
 </defs>
 <defs class="TextShapeIndex">
  <g ooo:slide="id1" ooo:id-list="id3 id4 id5 id6"/>
 </defs>
 <defs class="EmbeddedBulletChars">
  <g id="bullet-char-template-57356" transform="scale(0.00048828125,-0.00048828125)">
   <path d="M 580,1141 L 1163,571 580,0 -4,571 580,1141 Z"/>
  </g>
  <g id="bullet-char-template-57354" transform="scale(0.00048828125,-0.00048828125)">
   <path d="M 8,1128 L 1137,1128 1137,0 8,0 8,1128 Z"/>
  </g>
  <g id="bullet-char-template-10146" transform="scale(0.00048828125,-0.00048828125)">
   <path d="M 174,0 L 602,739 174,1481 1456,739 174,0 Z M 1358,739 L 309,1346 659,739 1358,739 Z"/>
  </g>
  <g id="bullet-char-template-10132" transform="scale(0.00048828125,-0.00048828125)">
   <path d="M 2015,739 L 1276,0 717,0 1260,543 174,543 174,936 1260,936 717,1481 1274,1481 2015,739 Z"/>
  </g>
  <g id="bullet-char-template-10007" transform="scale(0.00048828125,-0.00048828125)">
   <path d="M 0,-2 C -7,14 -16,27 -25,37 L 356,567 C 262,823 215,952 215,954 215,979 228,992 255,992 264,992 276,990 289,987 310,991 331,999 354,1012 L 381,999 492,748 772,1049 836,1024 860,1049 C 881,1039 901,1025 922,1006 886,937 835,863 770,784 769,783 710,716 594,584 L 774,223 C 774,196 753,168 711,139 L 727,119 C 717,90 699,76 672,76 641,76 570,178 457,381 L 164,-76 C 142,-110 111,-127 72,-127 30,-127 9,-110 8,-76 1,-67 -2,-52 -2,-32 -2,-23 -1,-13 0,-2 Z"/>
  </g>
  <g id="bullet-char-template-10004" transform="scale(0.00048828125,-0.00048828125)">
   <path d="M 285,-33 C 182,-33 111,30 74,156 52,228 41,333 41,471 41,549 55,616 82,672 116,743 169,778 240,778 293,778 328,747 346,684 L 369,508 C 377,444 397,411 428,410 L 1163,1116 C 1174,1127 1196,1133 1229,1133 1271,1133 1292,1118 1292,1087 L 1292,965 C 1292,929 1282,901 1262,881 L 442,47 C 390,-6 338,-33 285,-33 Z"/>
  </g>
  <g id="bullet-char-template-9679" transform="scale(0.00048828125,-0.00048828125)">
   <path d="M 813,0 C 632,0 489,54 383,161 276,268 223,411 223,592 223,773 276,916 383,1023 489,1130 632,1184 813,1184 992,1184 1136,1130 1245,1023 1353,916 1407,772 1407,592 1407,412 1353,268 1245,161 1136,54 992,0 813,0 Z"/>
  </g>
  <g id="bullet-char-template-8226" transform="scale(0.00048828125,-0.00048828125)">
   <path d="M 346,457 C 273,457 209,483 155,535 101,586 74,649 74,723 74,796 101,859 155,911 209,963 273,989 346,989 419,989 480,963 531,910 582,859 608,796 608,723 608,648 583,586 532,535 482,483 420,457 346,457 Z"/>
  </g>
  <g id="bullet-char-template-8211" transform="scale(0.00048828125,-0.00048828125)">
   <path d="M -4,459 L 1135,459 1135,606 -4,606 -4,459 Z"/>
  </g>
  <g id="bullet-char-template-61548" transform="scale(0.00048828125,-0.00048828125)">
   <path d="M 173,740 C 173,903 231,1043 346,1159 462,1274 601,1332 765,1332 928,1332 1067,1274 1183,1159 1299,1043 1357,903 1357,740 1357,577 1299,437 1183,322 1067,206 928,148 765,148 601,148 462,206 346,322 231,437 173,577 173,740 Z"/>
  </g>
 </defs>
 <defs class="TextEmbeddedBitmaps"/>
 <g>
  <g id="id2" class="Master_Slide">
   <g id="bg-id2" class="Background"/>
   <g id="bo-id2" class="BackgroundObjects"/>
  </g>
 </g>
 <g class="SlideGroup">
  <g>
   <g id="container-id1">
    <g id="id1" class="Slide" clip-path="url(#presentation_clip_path)">
     <g class="Page">
      <g class="com.sun.star.drawing.ClosedBezierShape">
       <g id="id3">
        <rect class="BoundingBox" stroke="none" fill="none" x="73" y="92" width="26086" height="26086"/>
        <path fill="rgb(184,0,8)" stroke="none" d="M 26158,13135 C 26158,15536 25611,17577 24411,19656 23210,21736 21717,23229 19637,24430 17558,25630 15517,26177 13116,26177 10715,26177 8674,25630 6595,24430 4516,23229 3022,21736 1821,19656 621,17577 74,15536 74,13135 74,10734 621,8693 1821,6614 3022,4535 4516,3041 6595,1840 8674,640 10715,93 13116,93 15517,93 17558,640 19637,1840 21717,3041 23210,4535 24411,6614 25611,8693 26158,10734 26158,13135 Z"/>
       </g>
      </g>
      <g class="com.sun.star.drawing.ClosedBezierShape">
       <g id="id4">
        <rect class="BoundingBox" stroke="none" fill="none" x="3686" y="3400" width="17315" height="18065"/>
        <path fill="rgb(255,255,255)" stroke="none" d="M 21000,15194 C 21000,15093 20946,14999 20858,14949 20858,14948 19795,14335 19405,14110 L 19405,10590 C 19405,10489 19351,10395 19263,10344 L 19263,10344 17013,9045 17013,7858 18182,8533 C 18226,8558 18275,8571 18324,8571 18373,8571 18421,8558 18465,8533 L 18465,8533 19263,8072 C 19350,8022 19405,7928 19405,7827 L 19404,5985 C 19404,5884 19350,5790 19263,5740 L 15276,3438 C 15188,3387 15080,3387 14993,3438 L 14195,3897 14195,3897 C 14195,3898 14195,3898 14195,3898 14107,3948 14053,4042 14053,4143 L 14053,5986 C 14053,6087 14107,6180 14195,6231 L 16446,7531 16446,8718 11288,5740 C 11200,5689 11092,5689 11004,5740 L 8613,7121 C 8570,7146 8534,7182 8509,7225 L 8509,7225 6116,11369 C 6087,11418 6075,11474 6079,11530 L 6079,12267 4625,13106 C 4538,13157 4484,13250 4484,13351 4484,13351 4484,13844 4484,14109 L 3828,14487 C 3740,14538 3686,14632 3686,14733 L 3686,16575 C 3686,16676 3740,16770 3828,16820 L 11803,21425 C 11846,21451 11895,21463 11944,21463 11993,21463 12042,21451 12086,21425 L 13539,20586 14195,20964 C 14283,21015 14391,21015 14478,20964 L 21000,17199 C 20946,17230 21000,17136 21000,17035 L 21000,15194 Z M 18607,7796 L 18608,6610 18838,6477 18838,7663 18607,7796 Z M 15134,4011 L 18555,5985 18324,6119 14904,4143 15134,4011 Z M 14620,4634 L 18041,6610 18040,7797 14620,5822 14620,4634 Z M 14620,16191 L 16937,12178 18838,11081 18838,15030 14620,17465 14620,16191 Z M 11146,6312 L 16446,9372 16446,10372 C 16446,10529 16573,10656 16729,10656 16886,10656 17013,10529 17013,10372 L 17013,9699 18555,10590 16729,11643 9321,7367 11146,6312 Z M 8858,7754 L 16342,12074 14233,15728 6748,11407 8858,7754 Z M 6645,12002 L 14053,16279 14053,17465 6645,13189 6645,12002 Z M 8969,16106 L 7949,16704 5847,15490 5847,14303 8969,16106 Z M 9249,17454 L 8514,17030 9249,16599 9249,17454 Z M 5280,14303 L 5280,15163 4536,14733 5280,14303 Z M 11661,20689 L 4253,16411 4253,15224 11661,19502 11661,20689 Z M 11944,19011 L 9816,17782 9816,16595 12972,18417 11944,19011 Z M 13256,20095 L 12228,20689 12228,19502 13256,18908 13256,20095 Z M 14053,20228 L 13823,20095 13823,18908 14053,19041 14053,20228 Z M 14337,18550 L 5333,13352 6079,12922 6079,13352 C 6079,13454 6133,13547 6220,13598 L 14195,18201 C 14239,18227 14288,18239 14337,18239 14386,18239 14435,18227 14479,18201 L 19263,15439 C 19351,15388 19405,15295 19405,15193 L 19405,14764 20150,15194 14337,18550 Z M 20433,16872 L 14620,20228 14620,19041 20433,15685 20433,16872 Z"/>
       </g>
      </g>
      <g class="com.sun.star.drawing.ClosedBezierShape">
       <g id="id5">
        <rect class="BoundingBox" stroke="none" fill="none" x="7260" y="8265" width="8572" height="6953"/>
        <path fill="rgb(255,255,255)" stroke="none" d="M 15792,12430 C 15871,12294 15824,12121 15689,12042 L 9212,8304 C 9077,8226 8903,8272 8825,8408 L 7298,11052 C 7260,11117 7250,11195 7270,11267 7289,11340 7336,11402 7402,11440 L 13878,15179 C 13921,15204 13970,15217 14020,15217 14044,15217 14069,15214 14093,15207 14166,15188 14228,15140 14265,15075 L 15792,12430 Z M 14782,13047 L 12612,11794 12990,11139 15160,12392 14782,13047 Z M 13916,14546 L 7931,11090 9174,8937 12499,10856 11980,11756 C 11901,11892 11948,12065 12083,12143 L 14498,13538 13916,14546 Z"/>
       </g>
      </g>
      <g class="com.sun.star.drawing.ClosedBezierShape">
       <g id="id6">
        <rect class="BoundingBox" stroke="none" fill="none" x="9267" y="9783" width="2165" height="1490"/>
        <path fill="rgb(255,255,255)" stroke="none" d="M 11289,10743 L 9693,9821 C 9558,9743 9384,9789 9306,9925 9228,10060 9274,10234 9410,10312 L 11005,11234 C 11050,11260 11099,11272 11147,11272 11245,11272 11340,11222 11393,11131 11471,10995 11425,10822 11289,10743 Z"/>
       </g>
      </g>
     </g>
    </g>
   </g>
  </g>
 </g>
</svg>