<?xml version="1.0" encoding="UTF-8"?>
<!DOCTYPE svg PUBLIC "-//W3C//DTD SVG 1.1//EN" "http://www.w3.org/Graphics/SVG/1.1/DTD/svg11.dtd">
<svg version="1.2" width="262.5mm" height="371.25mm" viewBox="0 0 26250 37125" preserveAspectRatio="xMidYMid" fill-rule="evenodd" stroke-width="28.222" stroke-linejoin="round" xmlns="http://www.w3.org/2000/svg" xmlns:ooo="http://xml.openoffice.org/svg/export" xmlns:xlink="http://www.w3.org/1999/xlink" xmlns:presentation="http://sun.com/xmlns/staroffice/presentation" xmlns:smil="http://www.w3.org/2001/SMIL20/" xmlns:anim="urn:oasis:names:tc:opendocument:xmlns:animation:1.0" xml:space="preserve">
 <defs class="ClipPathGroup">
  <clipPath id="presentation_clip_path" clipPathUnits="userSpaceOnUse">
   <rect x="0" y="0" width="26250" height="37125"/>
  </clipPath>
  <clipPath id="presentation_clip_path_shrink" clipPathUnits="userSpaceOnUse">
   <rect x="26" y="37" width="26198" height="37051"/>
  </clipPath>
 </defs>
 <defs class="TextShapeIndex">
  <g ooo:slide="id1" ooo:id-list="id3 id4 id5 id6"/>
 </defs>
 <defs class="EmbeddedBulletChars">
  <g id="bullet-char-template-57356" transform="scale(0.00048828125,-0.00048828125)">
   <path d="M 580,1141 L 1163,571 580,0 -4,571 580,1141 Z"/>
  </g>
  <g id="bullet-char-template-57354" transform="scale(0.00048828125,-0.00048828125)">
   <path d="M 8,1128 L 1137,1128 1137,0 8,0 8,1128 Z"/>
  </g>
  <g id="bullet-char-template-10146" transform="scale(0.00048828125,-0.00048828125)">
   <path d="M 174,0 L 602,739 174,1481 1456,739 174,0 Z M 1358,739 L 309,1346 659,739 1358,739 Z"/>
  </g>
  <g id="bullet-char-template-10132" transform="scale(0.00048828125,-0.00048828125)">
   <path d="M 2015,739 L 1276,0 717,0 1260,543 174,543 174,936 1260,936 717,1481 1274,1481 2015,739 Z"/>
  </g>
  <g id="bullet-char-template-10007" transform="scale(0.00048828125,-0.00048828125)">
   <path d="M 0,-2 C -7,14 -16,27 -25,37 L 356,567 C 262,823 215,952 215,954 215,979 228,992 255,992 264,992 276,990 289,987 310,991 331,999 354,1012 L 381,999 492,748 772,1049 836,1024 860,1049 C 881,1039 901,1025 922,1006 886,937 835,863 770,784 769,783 710,716 594,584 L 774,223 C 774,196 753,168 711,139 L 727,119 C 717,90 699,76 672,76 641,76 570,178 457,381 L 164,-76 C 142,-110 111,-127 72,-127 30,-127 9,-110 8,-76 1,-67 -2,-52 -2,-32 -2,-23 -1,-13 0,-2 Z"/>
  </g>
  <g id="bullet-char-template-10004" transform="scale(0.00048828125,-0.00048828125)">
   <path d="M 285,-33 C 182,-33 111,30 74,156 52,228 41,333 41,471 41,549 55,616 82,672 116,743 169,778 240,778 293,778 328,747 346,684 L 369,508 C 377,444 397,411 428,410 L 1163,1116 C 1174,1127 1196,1133 1229,1133 1271,1133 1292,1118 1292,1087 L 1292,965 C 1292,929 1282,901 1262,881 L 442,47 C 390,-6 338,-33 285,-33 Z"/>
  </g>
  <g id="bullet-char-template-9679" transform="scale(0.00048828125,-0.00048828125)">
   <path d="M 813,0 C 632,0 489,54 383,161 276,268 223,411 223,592 223,773 276,916 383,1023 489,1130 632,1184 813,1184 992,1184 1136,1130 1245,1023 1353,916 1407,772 1407,592 1407,412 1353,268 1245,161 1136,54 992,0 813,0 Z"/>
  </g>
  <g id="bullet-char-template-8226" transform="scale(0.00048828125,-0.00048828125)">
   <path d="M 346,457 C 273,457 209,483 155,535 101,586 74,649 74,723 74,796 101,859 155,911 209,963 273,989 346,989 419,989 480,963 531,910 582,859 608,796 608,723 608,648 583,586 532,535 482,483 420,457 346,457 Z"/>
  </g>
  <g id="bullet-char-template-8211" transform="scale(0.00048828125,-0.00048828125)">
   <path d="M -4,459 L 1135,459 1135,606 -4,606 -4,459 Z"/>
  </g>
  <g id="bullet-char-template-61548" transform="scale(0.00048828125,-0.00048828125)">
   <path d="M 173,740 C 173,903 231,1043 346,1159 462,1274 601,1332 765,1332 928,1332 1067,1274 1183,1159 1299,1043 1357,903 1357,740 1357,577 1299,437 1183,322 1067,206 928,148 765,148 601,148 462,206 346,322 231,437 173,577 173,740 Z"/>
  </g>
 </defs>
 <defs class="TextEmbeddedBitmaps"/>
 <g>
  <g id="id2" class="Master_Slide">
   <g id="bg-id2" class="Background"/>
   <g id="bo-id2" class="BackgroundObjects"/>
  </g>
 </g>
 <g class="SlideGroup">
  <g>
   <g id="container-id1">
    <g id="id1" class="Slide" clip-path="url(#presentation_clip_path)">
     <g class="Page">
      <g class="com.sun.star.drawing.ClosedBezierShape">
       <g id="id3">
        <rect class="BoundingBox" stroke="none" fill="none" x="73" y="92" width="26086" height="26086"/>
        <path fill="rgb(184,0,8)" stroke="none" d="M 26158,13135 C 26158,15536 25611,17577 24411,19656 23210,21736 21717,23229 19637,24430 17558,25630 15517,26177 13116,26177 10715,26177 8674,25630 6595,24430 4516,23229 3022,21736 1821,19656 621,17577 74,15536 74,13135 74,10734 621,8693 1821,6614 3022,4535 4516,3041 6595,1840 8674,640 10715,93 13116,93 15517,93 17558,640 19637,1840 21717,3041 23210,4535 24411,6614 25611,8693 26158,10734 26158,13135 Z"/>
       </g>
      </g>
      <g class="com.sun.star.drawing.ClosedBezierShape">
       <g id="id4">
        <rect class="BoundingBox" stroke="none" fill="none" x="12968" y="9979" width="5606" height="5009"/>
        <path fill="rgb(255,255,255)" stroke="none" d="M 18477,12742 L 16136,10400 C 16088,10353 16026,10321 15959,10309 L 14000,9983 C 13871,9962 13736,10023 13667,10138 L 13014,11229 C 12937,11358 12958,11522 13064,11627 L 16327,14890 C 16391,14955 16474,14987 16558,14987 16642,14987 16725,14955 16789,14890 L 18477,13203 C 18604,13076 18604,12869 18477,12742 Z M 15749,10936 L 16865,12051 C 16566,12170 16213,12110 15973,11869 L 14898,10794 15749,10936 Z M 16558,14198 L 13705,11346 14013,10831 15512,12331 C 15801,12619 16179,12763 16558,12763 16832,12763 17106,12685 17347,12534 L 17785,12972 16558,14198 Z"/>
       </g>
      </g>
      <g class="com.sun.star.drawing.ClosedBezierShape">
       <g id="id5">
        <rect class="BoundingBox" stroke="none" fill="none" x="5136" y="9661" width="1960" height="2605"/>
        <path fill="rgb(255,255,255)" stroke="none" d="M 6384,9794 C 6263,9618 5969,9618 5847,9794 5634,10103 5136,10867 5136,11285 5136,11824 5576,12264 6115,12264 6655,12264 7095,11824 7095,11285 7095,10867 6597,10103 6384,9794 Z M 6115,11611 C 5936,11611 5789,11465 5789,11286 5792,11185 5927,10901 6115,10584 6303,10900 6439,11185 6442,11286 6442,11465 6295,11611 6115,11611 Z"/>
       </g>
      </g>
      <g class="com.sun.star.drawing.ClosedBezierShape">
       <g id="id6">
        <rect class="BoundingBox" stroke="none" fill="none" x="5136" y="5736" width="15665" height="15665"/>
        <path fill="rgb(255,255,255)" stroke="none" d="M 20463,15672 L 20704,15431 C 20831,15303 20831,15097 20704,14969 L 19630,13895 20012,13513 C 20520,13004 20520,12175 20012,11666 L 17968,9623 C 18076,9435 18134,9222 18134,9000 18134,8666 18003,8352 17767,8116 L 17219,7568 C 16864,7215 16335,7105 15871,7292 L 13372,8291 12220,7137 C 12092,7010 11886,7010 11759,7137 L 11749,7147 C 11048,6543 9850,5737 8436,5737 6521,5737 5331,6522 5281,6555 5131,6654 5091,6856 5191,7006 L 5915,8092 C 6013,8240 6214,8280 6363,8186 6372,8181 7156,7695 8436,7695 9221,7695 9958,8191 10386,8545 10334,8664 10356,8808 10453,8905 L 11662,10114 11662,11531 C 11662,11875 11802,12212 12045,12455 L 15635,16044 C 15881,16291 16209,16426 16557,16426 16774,16426 16980,16368 17166,16270 L 18285,17389 C 18348,17452 18432,17484 18515,17484 18599,17484 18683,17452 18746,17389 L 18795,17339 C 18580,18532 17539,19442 16284,19442 L 14599,19442 C 14419,19442 14273,19588 14273,19768 L 14273,21074 C 14273,21254 14419,21400 14599,21400 L 16284,21400 C 18774,21400 20799,19374 20799,16885 20799,16453 20681,16041 20463,15672 Z M 8436,7042 C 7418,7042 6677,7308 6295,7486 L 5931,6939 C 6356,6731 7237,6390 8436,6390 9642,6390 10710,7125 11286,7611 L 10832,8065 C 10294,7613 9422,7042 8436,7042 Z M 17020,15582 C 16765,15838 16351,15837 16096,15582 L 12507,11993 C 12385,11871 12315,11703 12315,11531 L 12315,9979 C 12315,9892 12281,9810 12220,9748 L 11146,8674 11989,7830 13064,8905 C 13156,8997 13293,9026 13416,8977 L 16114,7898 C 16337,7809 16589,7861 16758,8030 L 17306,8579 C 17418,8691 17481,8840 17481,9000 17481,9160 17418,9310 17306,9422 17178,9550 17178,9756 17306,9884 L 19551,12128 C 19805,12383 19805,12796 19551,13051 L 17020,15582 Z M 18515,16697 L 17672,15853 19168,14356 20012,15200 18515,16697 Z M 16284,20747 L 14926,20747 14926,20095 16284,20095 C 18054,20095 19494,18655 19494,16885 19494,16813 19486,16740 19468,16666 L 19981,16154 C 20087,16383 20147,16629 20147,16885 20147,19015 18414,20747 16284,20747 Z"/>
       </g>
      </g>
     </g>
    </g>
   </g>
  </g>
 </g>
</svg>