<?xml version="1.0" encoding="UTF-8"?>
<!DOCTYPE svg PUBLIC "-//W3C//DTD SVG 1.1//EN" "http://www.w3.org/Graphics/SVG/1.1/DTD/svg11.dtd">
<svg version="1.2" width="262.5mm" height="371.25mm" viewBox="0 0 26250 37125" preserveAspectRatio="xMidYMid" fill-rule="evenodd" stroke-width="28.222" stroke-linejoin="round" xmlns="http://www.w3.org/2000/svg" xmlns:ooo="http://xml.openoffice.org/svg/export" xmlns:xlink="http://www.w3.org/1999/xlink" xmlns:presentation="http://sun.com/xmlns/staroffice/presentation" xmlns:smil="http://www.w3.org/2001/SMIL20/" xmlns:anim="urn:oasis:names:tc:opendocument:xmlns:animation:1.0" xml:space="preserve">
 <defs class="ClipPathGroup">
  <clipPath id="presentation_clip_path" clipPathUnits="userSpaceOnUse">
   <rect x="0" y="0" width="26250" height="37125"/>
  </clipPath>
  <clipPath id="presentation_clip_path_shrink" clipPathUnits="userSpaceOnUse">
   <rect x="26" y="37" width="26198" height="37051"/>
  </clipPath>
 </defs>
 <defs class="TextShapeIndex">
  <g ooo:slide="id1" ooo:id-list="id3 id4 id5 id6"/>
 </defs>
 <defs class="EmbeddedBulletChars">
  <g id="bullet-char-template-57356" transform="scale(0.00048828125,-0.00048828125)">
   <path d="M 580,1141 L 1163,571 580,0 -4,571 580,1141 Z"/>
  </g>
  <g id="bullet-char-template-57354" transform="scale(0.00048828125,-0.00048828125)">
   <path d="M 8,1128 L 1137,1128 1137,0 8,0 8,1128 Z"/>
  </g>
  <g id="bullet-char-template-10146" transform="scale(0.00048828125,-0.00048828125)">
   <path d="M 174,0 L 602,739 174,1481 1456,739 174,0 Z M 1358,739 L 309,1346 659,739 1358,739 Z"/>
  </g>
  <g id="bullet-char-template-10132" transform="scale(0.00048828125,-0.00048828125)">
   <path d="M 2015,739 L 1276,0 717,0 1260,543 174,543 174,936 1260,936 717,1481 1274,1481 2015,739 Z"/>
  </g>
  <g id="bullet-char-template-10007" transform="scale(0.00048828125,-0.00048828125)">
   <path d="M 0,-2 C -7,14 -16,27 -25,37 L 356,567 C 262,823 215,952 215,954 215,979 228,992 255,992 264,992 276,990 289,987 310,991 331,999 354,1012 L 381,999 492,748 772,1049 836,1024 860,1049 C 881,1039 901,1025 922,1006 886,937 835,863 770,784 769,783 710,716 594,584 L 774,223 C 774,196 753,168 711,139 L 727,119 C 717,90 699,76 672,76 641,76 570,178 457,381 L 164,-76 C 142,-110 111,-127 72,-127 30,-127 9,-110 8,-76 1,-67 -2,-52 -2,-32 -2,-23 -1,-13 0,-2 Z"/>
  </g>
  <g id="bullet-char-template-10004" transform="scale(0.00048828125,-0.00048828125)">
   <path d="M 285,-33 C 182,-33 111,30 74,156 52,228 41,333 41,471 41,549 55,616 82,672 116,743 169,778 240,778 293,778 328,747 346,684 L 369,508 C 377,444 397,411 428,410 L 1163,1116 C 1174,1127 1196,1133 1229,1133 1271,1133 1292,1118 1292,1087 L 1292,965 C 1292,929 1282,901 1262,881 L 442,47 C 390,-6 338,-33 285,-33 Z"/>
  </g>
  <g id="bullet-char-template-9679" transform="scale(0.00048828125,-0.00048828125)">
   <path d="M 813,0 C 632,0 489,54 383,161 276,268 223,411 223,592 223,773 276,916 383,1023 489,1130 632,1184 813,1184 992,1184 1136,1130 1245,1023 1353,916 1407,772 1407,592 1407,412 1353,268 1245,161 1136,54 992,0 813,0 Z"/>
  </g>
  <g id="bullet-char-template-8226" transform="scale(0.00048828125,-0.00048828125)">
   <path d="M 346,457 C 273,457 209,483 155,535 101,586 74,649 74,723 74,796 101,859 155,911 209,963 273,989 346,989 419,989 480,963 531,910 582,859 608,796 608,723 608,648 583,586 532,535 482,483 420,457 346,457 Z"/>
  </g>
  <g id="bullet-char-template-8211" transform="scale(0.00048828125,-0.00048828125)">
   <path d="M -4,459 L 1135,459 1135,606 -4,606 -4,459 Z"/>
  </g>
  <g id="bullet-char-template-61548" transform="scale(0.00048828125,-0.00048828125)">
   <path d="M 173,740 C 173,903 231,1043 346,1159 462,1274 601,1332 765,1332 928,1332 1067,1274 1183,1159 1299,1043 1357,903 1357,740 1357,577 1299,437 1183,322 1067,206 928,148 765,148 601,148 462,206 346,322 231,437 173,577 173,740 Z"/>
  </g>
 </defs>
 <defs class="TextEmbeddedBitmaps"/>
 <g>
  <g id="id2" class="Master_Slide">
   <g id="bg-id2" class="Background"/>
   <g id="bo-id2" class="BackgroundObjects"/>
  </g>
 </g>
 <g class="SlideGroup">
  <g>
   <g id="container-id1">
    <g id="id1" class="Slide" clip-path="url(#presentation_clip_path)">
     <g class="Page">
      <g class="com.sun.star.drawing.ClosedBezierShape">
       <g id="id3">
        <rect class="BoundingBox" stroke="none" fill="none" x="73" y="92" width="26086" height="26086"/>
        <path fill="rgb(184,0,8)" stroke="none" d="M 26158,13135 C 26158,15536 25611,17577 24411,19656 23210,21736 21717,23229 19637,24430 17558,25630 15517,26177 13116,26177 10715,26177 8674,25630 6595,24430 4516,23229 3022,21736 1821,19656 621,17577 74,15536 74,13135 74,10734 621,8693 1821,6614 3022,4535 4516,3041 6595,1840 8674,640 10715,93 13116,93 15517,93 17558,640 19637,1840 21717,3041 23210,4535 24411,6614 25611,8693 26158,10734 26158,13135 Z"/>
       </g>
      </g>
      <g class="com.sun.star.drawing.ClosedBezierShape">
       <g id="id4">
        <rect class="BoundingBox" stroke="none" fill="none" x="5486" y="5000" width="15615" height="16264"/>
        <path fill="rgb(255,255,255)" stroke="none" d="M 13293,5000 C 8989,5000 5486,8502 5486,12807 5486,14781 6221,16656 7557,18103 L 7122,20909 C 7104,21024 7152,21138 7246,21205 7299,21244 7362,21263 7426,21263 7474,21263 7523,21252 7567,21229 L 10084,19925 C 11094,20382 12174,20614 13293,20614 17598,20614 21100,17111 21100,12807 21100,8502 17598,5000 13293,5000 Z M 13293,19999 C 12214,19999 11176,19766 10208,19306 10121,19264 10020,19266 9935,19310 L 7822,20405 8187,18049 C 8203,17954 8172,17858 8105,17789 6812,16443 6100,14673 6100,12807 6100,8841 9327,5614 13293,5614 17259,5614 20485,8841 20485,12807 20485,16773 17259,19999 13293,19999 Z"/>
       </g>
      </g>
      <g class="com.sun.star.drawing.ClosedBezierShape">
       <g id="id5">
        <rect class="BoundingBox" stroke="none" fill="none" x="11666" y="7245" width="3256" height="3256"/>
        <path fill="rgb(255,255,255)" stroke="none" d="M 13293,7245 C 12396,7245 11666,7976 11666,8872 11666,9769 12396,10499 13293,10499 14190,10499 14920,9769 14920,8872 14920,7976 14190,7245 13293,7245 Z M 13293,9884 C 12735,9884 12281,9431 12281,8872 12281,8314 12735,7860 13293,7860 13851,7860 14305,8314 14305,8872 14305,9431 13851,9884 13293,9884 Z"/>
       </g>
      </g>
      <g class="com.sun.star.drawing.ClosedBezierShape">
       <g id="id6">
        <rect class="BoundingBox" stroke="none" fill="none" x="11182" y="11017" width="4223" height="6983"/>
        <path fill="rgb(255,255,255)" stroke="none" d="M 15096,16363 L 14746,16363 14746,11325 C 14746,11156 14608,11018 14439,11018 L 11490,11018 C 11320,11018 11183,11156 11183,11325 L 11183,12346 C 11183,12516 11320,12654 11490,12654 L 11840,12654 11840,16363 11490,16363 C 11320,16363 11183,16501 11183,16670 L 11183,17691 C 11183,17861 11320,17998 11490,17998 L 15096,17998 C 15266,17998 15403,17861 15403,17691 L 15403,16670 C 15403,16501 15266,16363 15096,16363 Z M 14789,17384 L 11797,17384 11797,16977 12147,16977 C 12317,16977 12454,16840 12454,16670 L 12454,12346 C 12454,12177 12317,12039 12147,12039 L 11797,12039 11797,11633 14131,11633 14131,16670 C 14131,16840 14269,16977 14439,16977 L 14789,16977 14789,17384 Z"/>
       </g>
      </g>
     </g>
    </g>
   </g>
  </g>
 </g>
</svg>