<?xml version="1.0" encoding="UTF-8"?>
<!DOCTYPE svg PUBLIC "-//W3C//DTD SVG 1.1//EN" "http://www.w3.org/Graphics/SVG/1.1/DTD/svg11.dtd">
<svg version="1.2" width="262.5mm" height="371.25mm" viewBox="0 0 26250 37125" preserveAspectRatio="xMidYMid" fill-rule="evenodd" stroke-width="28.222" stroke-linejoin="round" xmlns="http://www.w3.org/2000/svg" xmlns:ooo="http://xml.openoffice.org/svg/export" xmlns:xlink="http://www.w3.org/1999/xlink" xmlns:presentation="http://sun.com/xmlns/staroffice/presentation" xmlns:smil="http://www.w3.org/2001/SMIL20/" xmlns:anim="urn:oasis:names:tc:opendocument:xmlns:animation:1.0" xml:space="preserve">
 <defs class="ClipPathGroup">
  <clipPath id="presentation_clip_path" clipPathUnits="userSpaceOnUse">
   <rect x="0" y="0" width="26250" height="37125"/>
  </clipPath>
  <clipPath id="presentation_clip_path_shrink" clipPathUnits="userSpaceOnUse">
   <rect x="26" y="37" width="26198" height="37051"/>
  </clipPath>
 </defs>
 <defs class="TextShapeIndex">
  <g ooo:slide="id1" ooo:id-list="id3 id4 id5 id6 id7"/>
 </defs>
 <defs class="EmbeddedBulletChars">
  <g id="bullet-char-template-57356" transform="scale(0.00048828125,-0.00048828125)">
   <path d="M 580,1141 L 1163,571 580,0 -4,571 580,1141 Z"/>
  </g>
  <g id="bullet-char-template-57354" transform="scale(0.00048828125,-0.00048828125)">
   <path d="M 8,1128 L 1137,1128 1137,0 8,0 8,1128 Z"/>
  </g>
  <g id="bullet-char-template-10146" transform="scale(0.00048828125,-0.00048828125)">
   <path d="M 174,0 L 602,739 174,1481 1456,739 174,0 Z M 1358,739 L 309,1346 659,739 1358,739 Z"/>
  </g>
  <g id="bullet-char-template-10132" transform="scale(0.00048828125,-0.00048828125)">
   <path d="M 2015,739 L 1276,0 717,0 1260,543 174,543 174,936 1260,936 717,1481 1274,1481 2015,739 Z"/>
  </g>
  <g id="bullet-char-template-10007" transform="scale(0.00048828125,-0.00048828125)">
   <path d="M 0,-2 C -7,14 -16,27 -25,37 L 356,567 C 262,823 215,952 215,954 215,979 228,992 255,992 264,992 276,990 289,987 310,991 331,999 354,1012 L 381,999 492,748 772,1049 836,1024 860,1049 C 881,1039 901,1025 922,1006 886,937 835,863 770,784 769,783 710,716 594,584 L 774,223 C 774,196 753,168 711,139 L 727,119 C 717,90 699,76 672,76 641,76 570,178 457,381 L 164,-76 C 142,-110 111,-127 72,-127 30,-127 9,-110 8,-76 1,-67 -2,-52 -2,-32 -2,-23 -1,-13 0,-2 Z"/>
  </g>
  <g id="bullet-char-template-10004" transform="scale(0.00048828125,-0.00048828125)">
   <path d="M 285,-33 C 182,-33 111,30 74,156 52,228 41,333 41,471 41,549 55,616 82,672 116,743 169,778 240,778 293,778 328,747 346,684 L 369,508 C 377,444 397,411 428,410 L 1163,1116 C 1174,1127 1196,1133 1229,1133 1271,1133 1292,1118 1292,1087 L 1292,965 C 1292,929 1282,901 1262,881 L 442,47 C 390,-6 338,-33 285,-33 Z"/>
  </g>
  <g id="bullet-char-template-9679" transform="scale(0.00048828125,-0.00048828125)">
   <path d="M 813,0 C 632,0 489,54 383,161 276,268 223,411 223,592 223,773 276,916 383,1023 489,1130 632,1184 813,1184 992,1184 1136,1130 1245,1023 1353,916 1407,772 1407,592 1407,412 1353,268 1245,161 1136,54 992,0 813,0 Z"/>
  </g>
  <g id="bullet-char-template-8226" transform="scale(0.00048828125,-0.00048828125)">
   <path d="M 346,457 C 273,457 209,483 155,535 101,586 74,649 74,723 74,796 101,859 155,911 209,963 273,989 346,989 419,989 480,963 531,910 582,859 608,796 608,723 608,648 583,586 532,535 482,483 420,457 346,457 Z"/>
  </g>
  <g id="bullet-char-template-8211" transform="scale(0.00048828125,-0.00048828125)">
   <path d="M -4,459 L 1135,459 1135,606 -4,606 -4,459 Z"/>
  </g>
  <g id="bullet-char-template-61548" transform="scale(0.00048828125,-0.00048828125)">
   <path d="M 173,740 C 173,903 231,1043 346,1159 462,1274 601,1332 765,1332 928,1332 1067,1274 1183,1159 1299,1043 1357,903 1357,740 1357,577 1299,437 1183,322 1067,206 928,148 765,148 601,148 462,206 346,322 231,437 173,577 173,740 Z"/>
  </g>
 </defs>
 <defs class="TextEmbeddedBitmaps"/>
 <g>
  <g id="id2" class="Master_Slide">
   <g id="bg-id2" class="Background"/>
   <g id="bo-id2" class="BackgroundObjects"/>
  </g>
 </g>
 <g class="SlideGroup">
  <g>
   <g id="container-id1">
    <g id="id1" class="Slide" clip-path="url(#presentation_clip_path)">
     <g class="Page">
      <g class="com.sun.star.drawing.ClosedBezierShape">
       <g id="id3">
        <rect class="BoundingBox" stroke="none" fill="none" x="73" y="92" width="26086" height="26086"/>
        <path fill="rgb(184,0,8)" stroke="none" d="M 26158,13135 C 26158,15536 25611,17577 24411,19656 23210,21736 21717,23229 19637,24430 17558,25630 15517,26177 13116,26177 10715,26177 8674,25630 6595,24430 4516,23229 3022,21736 1821,19656 621,17577 74,15536 74,13135 74,10734 621,8693 1821,6614 3022,4535 4516,3041 6595,1840 8674,640 10715,93 13116,93 15517,93 17558,640 19637,1840 21717,3041 23210,4535 24411,6614 25611,8693 26158,10734 26158,13135 Z"/>
       </g>
      </g>
      <g class="com.sun.star.drawing.ClosedBezierShape">
       <g id="id4">
        <rect class="BoundingBox" stroke="none" fill="none" x="9170" y="11747" width="755" height="753"/>
        <path fill="rgb(255,255,255)" stroke="none" d="M 9851,12080 L 9590,11820 C 9494,11723 9338,11723 9243,11820 9146,11915 9146,12071 9243,12167 L 9504,12427 C 9594,12518 9753,12526 9851,12427 9947,12332 9947,12176 9851,12080 Z"/>
       </g>
      </g>
      <g class="com.sun.star.drawing.ClosedBezierShape">
       <g id="id5">
        <rect class="BoundingBox" stroke="none" fill="none" x="12050" y="8867" width="754" height="753"/>
        <path fill="rgb(255,255,255)" stroke="none" d="M 12730,9201 L 12469,8940 C 12374,8843 12218,8843 12122,8940 12026,9036 12026,9191 12122,9287 L 12383,9548 C 12476,9641 12636,9643 12730,9548 12827,9452 12827,9296 12730,9201 Z"/>
       </g>
      </g>
      <g class="com.sun.star.drawing.ClosedBezierShape">
       <g id="id6">
        <rect class="BoundingBox" stroke="none" fill="none" x="10433" y="10131" width="1369" height="1370"/>
        <path fill="rgb(255,255,255)" stroke="none" d="M 11798,10361 C 11789,10226 11672,10124 11536,10132 11401,10141 11299,10258 11308,10394 11319,10553 11256,10714 11136,10834 11016,10954 10855,11017 10696,11006 10561,10997 10443,11100 10434,11235 10423,11411 10576,11499 10731,11499 11008,11499 11279,11385 11484,11182 11704,10961 11819,10662 11798,10361 Z"/>
       </g>
      </g>
      <g class="com.sun.star.drawing.ClosedBezierShape">
       <g id="id7">
        <rect class="BoundingBox" stroke="none" fill="none" x="5140" y="4837" width="16762" height="16764"/>
        <path fill="rgb(255,255,255)" stroke="none" d="M 21302,7903 C 20507,6775 18888,5582 17034,5414 15924,4110 13276,5332 12054,6004 11844,5914 11611,5877 11376,5900 10628,5974 9180,6291 7887,7584 6593,8877 6277,10325 6203,11073 6180,11308 6218,11541 6307,11751 5635,12973 4413,15621 5717,16731 5884,18585 7078,20204 8205,20999 8766,21394 9504,21740 10203,21543 11353,21219 11351,20398 11347,19449 11345,19038 11343,18577 11425,18073 11737,17937 12004,17704 12177,17397 12466,16886 12676,16247 12804,15498 12945,15460 13064,15394 13161,15297 L 15600,12858 C 15697,12761 15764,12642 15803,12501 16551,12373 17189,12163 17700,11875 18007,11701 18241,11435 18377,11122 18880,11040 19342,11042 19752,11044 20701,11048 21522,11051 21845,9900 22005,9336 21812,8627 21302,7903 Z M 10856,19451 C 10860,20444 10831,20856 10070,21070 9657,21187 9080,21015 8488,20597 7535,19927 6532,18616 6259,17087 6271,17093 6282,17099 6294,17105 7324,17657 8513,17904 9659,18077 10002,18128 10354,18185 10700,18204 10719,18205 10909,18212 10911,18202 10852,18661 10854,19076 10856,19451 Z M 15253,12510 C 15253,12510 12818,14945 12813,14950 12693,15070 12475,15053 12323,15032 11891,14973 11473,14781 11084,14590 10249,14178 9462,13666 8698,13136 8591,13062 8431,13090 8357,13198 8279,13309 8307,13462 8418,13539 9259,14122 10129,14690 11058,15122 11513,15332 11899,15462 12221,15512 12248,15516 12274,15520 12301,15524 12182,16169 11996,16718 11750,17156 11509,17582 11046,17753 10577,17699 9085,17539 7343,17320 6098,16406 5604,16045 5498,15320 5782,14254 5985,13495 6346,12727 6620,12205 6658,12240 6696,12275 6737,12306 7019,12524 7311,12743 7602,12958 7709,13036 7868,13011 7946,12905 8025,12795 8002,12641 7893,12561 7702,12421 7510,12278 7322,12135 6984,11878 6645,11589 6692,11121 6760,10438 7049,9117 8234,7931 9419,6746 10741,6457 11424,6389 11695,6362 11968,6466 12157,6662 12351,6863 12501,7101 12668,7325 13736,8756 14758,10329 15165,11400 15235,11588 15298,11787 15327,11989 15351,12151 15382,12381 15253,12510 Z M 17459,11447 C 17021,11694 16474,11878 15828,11997 15780,11582 15588,11052 15248,10394 14570,9067 13449,7522 12647,6484 12602,6426 12558,6370 12508,6318 13030,6043 13798,5682 14557,5480 15623,5195 16347,5301 16709,5794 17612,7026 17843,8794 18002,10274 18053,10745 17886,11205 17459,11447 Z M 21373,9767 C 21159,10528 20747,10557 19754,10553 19379,10551 18964,10549 18505,10608 18505,10601 18505,10596 18506,10590 18520,10364 18481,10132 18454,9907 18414,9573 18364,9240 18307,8909 18140,7957 17910,6993 17477,6125 17449,6068 17420,6011 17390,5957 18918,6229 20230,7233 20900,8185 21317,8777 21490,9354 21373,9767 Z"/>
       </g>
      </g>
     </g>
    </g>
   </g>
  </g>
 </g>
</svg>