<?xml version="1.0" encoding="UTF-8"?>
<!DOCTYPE svg PUBLIC "-//W3C//DTD SVG 1.1//EN" "http://www.w3.org/Graphics/SVG/1.1/DTD/svg11.dtd">
<svg version="1.2" width="262.5mm" height="371.25mm" viewBox="0 0 26250 37125" preserveAspectRatio="xMidYMid" fill-rule="evenodd" stroke-width="28.222" stroke-linejoin="round" xmlns="http://www.w3.org/2000/svg" xmlns:ooo="http://xml.openoffice.org/svg/export" xmlns:xlink="http://www.w3.org/1999/xlink" xmlns:presentation="http://sun.com/xmlns/staroffice/presentation" xmlns:smil="http://www.w3.org/2001/SMIL20/" xmlns:anim="urn:oasis:names:tc:opendocument:xmlns:animation:1.0" xml:space="preserve">
 <defs class="ClipPathGroup">
  <clipPath id="presentation_clip_path" clipPathUnits="userSpaceOnUse">
   <rect x="0" y="0" width="26250" height="37125"/>
  </clipPath>
  <clipPath id="presentation_clip_path_shrink" clipPathUnits="userSpaceOnUse">
   <rect x="26" y="37" width="26198" height="37051"/>
  </clipPath>
 </defs>
 <defs class="TextShapeIndex">
  <g ooo:slide="id1" ooo:id-list="id3 id4 id5 id6 id7 id8 id9 id10 id11 id12 id13 id14 id15 id16 id17 id18 id19"/>
 </defs>
 <defs class="EmbeddedBulletChars">
  <g id="bullet-char-template-57356" transform="scale(0.00048828125,-0.00048828125)">
   <path d="M 580,1141 L 1163,571 580,0 -4,571 580,1141 Z"/>
  </g>
  <g id="bullet-char-template-57354" transform="scale(0.00048828125,-0.00048828125)">
   <path d="M 8,1128 L 1137,1128 1137,0 8,0 8,1128 Z"/>
  </g>
  <g id="bullet-char-template-10146" transform="scale(0.00048828125,-0.00048828125)">
   <path d="M 174,0 L 602,739 174,1481 1456,739 174,0 Z M 1358,739 L 309,1346 659,739 1358,739 Z"/>
  </g>
  <g id="bullet-char-template-10132" transform="scale(0.00048828125,-0.00048828125)">
   <path d="M 2015,739 L 1276,0 717,0 1260,543 174,543 174,936 1260,936 717,1481 1274,1481 2015,739 Z"/>
  </g>
  <g id="bullet-char-template-10007" transform="scale(0.00048828125,-0.00048828125)">
   <path d="M 0,-2 C -7,14 -16,27 -25,37 L 356,567 C 262,823 215,952 215,954 215,979 228,992 255,992 264,992 276,990 289,987 310,991 331,999 354,1012 L 381,999 492,748 772,1049 836,1024 860,1049 C 881,1039 901,1025 922,1006 886,937 835,863 770,784 769,783 710,716 594,584 L 774,223 C 774,196 753,168 711,139 L 727,119 C 717,90 699,76 672,76 641,76 570,178 457,381 L 164,-76 C 142,-110 111,-127 72,-127 30,-127 9,-110 8,-76 1,-67 -2,-52 -2,-32 -2,-23 -1,-13 0,-2 Z"/>
  </g>
  <g id="bullet-char-template-10004" transform="scale(0.00048828125,-0.00048828125)">
   <path d="M 285,-33 C 182,-33 111,30 74,156 52,228 41,333 41,471 41,549 55,616 82,672 116,743 169,778 240,778 293,778 328,747 346,684 L 369,508 C 377,444 397,411 428,410 L 1163,1116 C 1174,1127 1196,1133 1229,1133 1271,1133 1292,1118 1292,1087 L 1292,965 C 1292,929 1282,901 1262,881 L 442,47 C 390,-6 338,-33 285,-33 Z"/>
  </g>
  <g id="bullet-char-template-9679" transform="scale(0.00048828125,-0.00048828125)">
   <path d="M 813,0 C 632,0 489,54 383,161 276,268 223,411 223,592 223,773 276,916 383,1023 489,1130 632,1184 813,1184 992,1184 1136,1130 1245,1023 1353,916 1407,772 1407,592 1407,412 1353,268 1245,161 1136,54 992,0 813,0 Z"/>
  </g>
  <g id="bullet-char-template-8226" transform="scale(0.00048828125,-0.00048828125)">
   <path d="M 346,457 C 273,457 209,483 155,535 101,586 74,649 74,723 74,796 101,859 155,911 209,963 273,989 346,989 419,989 480,963 531,910 582,859 608,796 608,723 608,648 583,586 532,535 482,483 420,457 346,457 Z"/>
  </g>
  <g id="bullet-char-template-8211" transform="scale(0.00048828125,-0.00048828125)">
   <path d="M -4,459 L 1135,459 1135,606 -4,606 -4,459 Z"/>
  </g>
  <g id="bullet-char-template-61548" transform="scale(0.00048828125,-0.00048828125)">
   <path d="M 173,740 C 173,903 231,1043 346,1159 462,1274 601,1332 765,1332 928,1332 1067,1274 1183,1159 1299,1043 1357,903 1357,740 1357,577 1299,437 1183,322 1067,206 928,148 765,148 601,148 462,206 346,322 231,437 173,577 173,740 Z"/>
  </g>
 </defs>
 <defs class="TextEmbeddedBitmaps"/>
 <g>
  <g id="id2" class="Master_Slide">
   <g id="bg-id2" class="Background"/>
   <g id="bo-id2" class="BackgroundObjects"/>
  </g>
 </g>
 <g class="SlideGroup">
  <g>
   <g id="container-id1">
    <g id="id1" class="Slide" clip-path="url(#presentation_clip_path)">
     <g class="Page">
      <g class="com.sun.star.drawing.ClosedBezierShape">
       <g id="id3">
        <rect class="BoundingBox" stroke="none" fill="none" x="73" y="92" width="26086" height="26086"/>
        <path fill="rgb(184,0,8)" stroke="none" d="M 26158,13135 C 26158,15536 25611,17577 24411,19656 23210,21736 21717,23229 19637,24430 17558,25630 15517,26177 13116,26177 10715,26177 8674,25630 6595,24430 4516,23229 3022,21736 1821,19656 621,17577 74,15536 74,13135 74,10734 621,8693 1821,6614 3022,4535 4516,3041 6595,1840 8674,640 10715,93 13116,93 15517,93 17558,640 19637,1840 21717,3041 23210,4535 24411,6614 25611,8693 26158,10734 26158,13135 Z"/>
       </g>
      </g>
      <g class="com.sun.star.drawing.PolyPolygonShape">
       <g id="id4">
        <rect class="BoundingBox" stroke="none" fill="none" x="5400" y="6000" width="14838" height="11620"/>
        <path fill="rgb(255,255,255)" stroke="none" d="M 6740,8145 L 6740,8681 20236,8681 20236,6000 5400,6000 5400,17619 16214,17619 16214,17082 5936,17082 5936,6536 19700,6536 19700,8145 6740,8145 Z"/>
       </g>
      </g>
      <g class="com.sun.star.drawing.PolyPolygonShape">
       <g id="id5">
        <rect class="BoundingBox" stroke="none" fill="none" x="6803" y="7072" width="539" height="539"/>
        <path fill="rgb(255,255,255)" stroke="none" d="M 7072,7610 L 6803,7610 6803,7073 7340,7073 7340,7610 7072,7610 Z"/>
       </g>
      </g>
      <g class="com.sun.star.drawing.PolyPolygonShape">
       <g id="id6">
        <rect class="BoundingBox" stroke="none" fill="none" x="7875" y="7072" width="540" height="539"/>
        <path fill="rgb(255,255,255)" stroke="none" d="M 8144,7610 L 7876,7610 7876,7073 8413,7073 8413,7610 8144,7610 Z"/>
       </g>
      </g>
      <g class="com.sun.star.drawing.PolyPolygonShape">
       <g id="id7">
        <rect class="BoundingBox" stroke="none" fill="none" x="8948" y="7072" width="539" height="539"/>
        <path fill="rgb(255,255,255)" stroke="none" d="M 9217,7610 L 8948,7610 8948,7073 9486,7073 9486,7610 9217,7610 Z"/>
       </g>
      </g>
      <g class="com.sun.star.drawing.PolyPolygonShape">
       <g id="id8">
        <rect class="BoundingBox" stroke="none" fill="none" x="11092" y="7072" width="7743" height="539"/>
        <path fill="rgb(255,255,255)" stroke="none" d="M 14963,7610 L 11092,7610 11092,7073 18833,7073 18833,7610 14963,7610 Z"/>
       </g>
      </g>
      <g class="com.sun.star.drawing.PolyPolygonShape">
       <g id="id9">
        <rect class="BoundingBox" stroke="none" fill="none" x="6650" y="9682" width="3756" height="6401"/>
        <path fill="rgb(255,255,255)" stroke="none" d="M 6651,9682 L 6651,16082 10405,16082 10405,9682 6651,9682 Z M 9869,15545 L 7187,15545 7187,10218 9869,10218 9869,15545 Z"/>
       </g>
      </g>
      <g class="com.sun.star.drawing.PolyPolygonShape">
       <g id="id10">
        <rect class="BoundingBox" stroke="none" fill="none" x="10941" y="9682" width="8046" height="2934"/>
        <path fill="rgb(255,255,255)" stroke="none" d="M 10941,9682 L 10941,12615 18985,12615 18985,9682 10941,9682 Z M 18449,12078 L 11477,12078 11477,10218 18449,10218 18449,12078 Z"/>
       </g>
      </g>
      <g class="com.sun.star.drawing.PolyPolygonShape">
       <g id="id11">
        <rect class="BoundingBox" stroke="none" fill="none" x="13085" y="10878" width="539" height="540"/>
        <path fill="rgb(255,255,255)" stroke="none" d="M 13354,11416 L 13085,11416 13085,10879 13623,10879 13623,11416 13354,11416 Z"/>
       </g>
      </g>
      <g class="com.sun.star.drawing.PolyPolygonShape">
       <g id="id12">
        <rect class="BoundingBox" stroke="none" fill="none" x="14157" y="10878" width="540" height="540"/>
        <path fill="rgb(255,255,255)" stroke="none" d="M 14426,11416 L 14158,11416 14158,10879 14695,10879 14695,11416 14426,11416 Z"/>
       </g>
      </g>
      <g class="com.sun.star.drawing.PolyPolygonShape">
       <g id="id13">
        <rect class="BoundingBox" stroke="none" fill="none" x="15230" y="10878" width="539" height="540"/>
        <path fill="rgb(255,255,255)" stroke="none" d="M 15499,11416 L 15230,11416 15230,10879 15768,10879 15768,11416 15499,11416 Z"/>
       </g>
      </g>
      <g class="com.sun.star.drawing.PolyPolygonShape">
       <g id="id14">
        <rect class="BoundingBox" stroke="none" fill="none" x="16302" y="10878" width="540" height="540"/>
        <path fill="rgb(255,255,255)" stroke="none" d="M 16572,11416 L 16303,11416 16303,10879 16840,10879 16840,11416 16572,11416 Z"/>
       </g>
      </g>
      <g class="com.sun.star.drawing.PolyPolygonShape">
       <g id="id15">
        <rect class="BoundingBox" stroke="none" fill="none" x="10941" y="13149" width="3041" height="2934"/>
        <path fill="rgb(255,255,255)" stroke="none" d="M 10941,13149 L 10941,16082 13980,16082 13980,13149 10941,13149 Z M 13444,15545 L 11477,15545 11477,13685 13444,13685 13444,15545 Z"/>
       </g>
      </g>
      <g class="com.sun.star.drawing.PolyPolygonShape">
       <g id="id16">
        <rect class="BoundingBox" stroke="none" fill="none" x="15739" y="13149" width="2979" height="539"/>
        <path fill="rgb(255,255,255)" stroke="none" d="M 17228,13686 L 15740,13686 15740,13149 18717,13149 18717,13686 17228,13686 Z"/>
       </g>
      </g>
      <g class="com.sun.star.drawing.PolyPolygonShape">
       <g id="id17">
        <rect class="BoundingBox" stroke="none" fill="none" x="14666" y="13947" width="4052" height="539"/>
        <path fill="rgb(255,255,255)" stroke="none" d="M 16692,14484 L 14667,14484 14667,13947 18717,13947 18717,14484 16692,14484 Z"/>
       </g>
      </g>
      <g class="com.sun.star.drawing.ClosedBezierShape">
       <g id="id18">
        <rect class="BoundingBox" stroke="none" fill="none" x="14666" y="9485" width="8252" height="10816"/>
        <path fill="rgb(255,255,255)" stroke="none" d="M 20235,14414 L 20235,9485 19699,9485 19699,14414 C 19299,14449 18921,14566 18584,14746 L 14667,14746 14667,15282 17866,15282 C 17785,15366 17708,15453 17637,15545 L 14667,15545 14667,16082 17305,16082 C 17121,16466 17018,16896 17018,17350 17018,18976 18340,20300 19967,20300 21593,20300 22917,18976 22917,17350 22917,15815 21736,14549 20235,14414 Z M 19967,19764 C 18636,19764 17554,18681 17554,17350 17554,16020 18636,14937 19967,14937 21298,14937 22380,16020 22380,17350 22380,18681 21298,19764 19967,19764 Z"/>
       </g>
      </g>
      <g class="com.sun.star.drawing.PolyPolygonShape">
       <g id="id19">
        <rect class="BoundingBox" stroke="none" fill="none" x="18357" y="15741" width="3221" height="3220"/>
        <path fill="rgb(255,255,255)" stroke="none" d="M 20235,17082 L 20235,15741 19699,15741 19699,17082 18358,17082 18358,17619 19699,17619 19699,18960 20235,18960 20235,17619 21576,17619 21576,17082 20235,17082 Z"/>
       </g>
      </g>
     </g>
    </g>
   </g>
  </g>
 </g>
</svg>