<?xml version="1.0" encoding="UTF-8"?>
<!DOCTYPE svg PUBLIC "-//W3C//DTD SVG 1.1//EN" "http://www.w3.org/Graphics/SVG/1.1/DTD/svg11.dtd">
<svg version="1.2" width="262.5mm" height="371.25mm" viewBox="0 0 26250 37125" preserveAspectRatio="xMidYMid" fill-rule="evenodd" stroke-width="28.222" stroke-linejoin="round" xmlns="http://www.w3.org/2000/svg" xmlns:ooo="http://xml.openoffice.org/svg/export" xmlns:xlink="http://www.w3.org/1999/xlink" xmlns:presentation="http://sun.com/xmlns/staroffice/presentation" xmlns:smil="http://www.w3.org/2001/SMIL20/" xmlns:anim="urn:oasis:names:tc:opendocument:xmlns:animation:1.0" xml:space="preserve">
 <defs class="ClipPathGroup">
  <clipPath id="presentation_clip_path" clipPathUnits="userSpaceOnUse">
   <rect x="0" y="0" width="26250" height="37125"/>
  </clipPath>
  <clipPath id="presentation_clip_path_shrink" clipPathUnits="userSpaceOnUse">
   <rect x="26" y="37" width="26198" height="37051"/>
  </clipPath>
 </defs>
 <defs class="TextShapeIndex">
  <g ooo:slide="id1" ooo:id-list="id3 id4"/>
 </defs>
 <defs class="EmbeddedBulletChars">
  <g id="bullet-char-template-57356" transform="scale(0.00048828125,-0.00048828125)">
   <path d="M 580,1141 L 1163,571 580,0 -4,571 580,1141 Z"/>
  </g>
  <g id="bullet-char-template-57354" transform="scale(0.00048828125,-0.00048828125)">
   <path d="M 8,1128 L 1137,1128 1137,0 8,0 8,1128 Z"/>
  </g>
  <g id="bullet-char-template-10146" transform="scale(0.00048828125,-0.00048828125)">
   <path d="M 174,0 L 602,739 174,1481 1456,739 174,0 Z M 1358,739 L 309,1346 659,739 1358,739 Z"/>
  </g>
  <g id="bullet-char-template-10132" transform="scale(0.00048828125,-0.00048828125)">
   <path d="M 2015,739 L 1276,0 717,0 1260,543 174,543 174,936 1260,936 717,1481 1274,1481 2015,739 Z"/>
  </g>
  <g id="bullet-char-template-10007" transform="scale(0.00048828125,-0.00048828125)">
   <path d="M 0,-2 C -7,14 -16,27 -25,37 L 356,567 C 262,823 215,952 215,954 215,979 228,992 255,992 264,992 276,990 289,987 310,991 331,999 354,1012 L 381,999 492,748 772,1049 836,1024 860,1049 C 881,1039 901,1025 922,1006 886,937 835,863 770,784 769,783 710,716 594,584 L 774,223 C 774,196 753,168 711,139 L 727,119 C 717,90 699,76 672,76 641,76 570,178 457,381 L 164,-76 C 142,-110 111,-127 72,-127 30,-127 9,-110 8,-76 1,-67 -2,-52 -2,-32 -2,-23 -1,-13 0,-2 Z"/>
  </g>
  <g id="bullet-char-template-10004" transform="scale(0.00048828125,-0.00048828125)">
   <path d="M 285,-33 C 182,-33 111,30 74,156 52,228 41,333 41,471 41,549 55,616 82,672 116,743 169,778 240,778 293,778 328,747 346,684 L 369,508 C 377,444 397,411 428,410 L 1163,1116 C 1174,1127 1196,1133 1229,1133 1271,1133 1292,1118 1292,1087 L 1292,965 C 1292,929 1282,901 1262,881 L 442,47 C 390,-6 338,-33 285,-33 Z"/>
  </g>
  <g id="bullet-char-template-9679" transform="scale(0.00048828125,-0.00048828125)">
   <path d="M 813,0 C 632,0 489,54 383,161 276,268 223,411 223,592 223,773 276,916 383,1023 489,1130 632,1184 813,1184 992,1184 1136,1130 1245,1023 1353,916 1407,772 1407,592 1407,412 1353,268 1245,161 1136,54 992,0 813,0 Z"/>
  </g>
  <g id="bullet-char-template-8226" transform="scale(0.00048828125,-0.00048828125)">
   <path d="M 346,457 C 273,457 209,483 155,535 101,586 74,649 74,723 74,796 101,859 155,911 209,963 273,989 346,989 419,989 480,963 531,910 582,859 608,796 608,723 608,648 583,586 532,535 482,483 420,457 346,457 Z"/>
  </g>
  <g id="bullet-char-template-8211" transform="scale(0.00048828125,-0.00048828125)">
   <path d="M -4,459 L 1135,459 1135,606 -4,606 -4,459 Z"/>
  </g>
  <g id="bullet-char-template-61548" transform="scale(0.00048828125,-0.00048828125)">
   <path d="M 173,740 C 173,903 231,1043 346,1159 462,1274 601,1332 765,1332 928,1332 1067,1274 1183,1159 1299,1043 1357,903 1357,740 1357,577 1299,437 1183,322 1067,206 928,148 765,148 601,148 462,206 346,322 231,437 173,577 173,740 Z"/>
  </g>
 </defs>
 <defs class="TextEmbeddedBitmaps"/>
 <g>
  <g id="id2" class="Master_Slide">
   <g id="bg-id2" class="Background"/>
   <g id="bo-id2" class="BackgroundObjects"/>
  </g>
 </g>
 <g class="SlideGroup">
  <g>
   <g id="container-id1">
    <g id="id1" class="Slide" clip-path="url(#presentation_clip_path)">
     <g class="Page">
      <g class="com.sun.star.drawing.ClosedBezierShape">
       <g id="id3">
        <rect class="BoundingBox" stroke="none" fill="none" x="73" y="92" width="26086" height="26086"/>
        <path fill="rgb(184,0,8)" stroke="none" d="M 26158,13135 C 26158,15536 25611,17577 24411,19656 23210,21736 21717,23229 19637,24430 17558,25630 15517,26177 13116,26177 10715,26177 8674,25630 6595,24430 4516,23229 3022,21736 1821,19656 621,17577 74,15536 74,13135 74,10734 621,8693 1821,6614 3022,4535 4516,3041 6595,1840 8674,640 10715,93 13116,93 15517,93 17558,640 19637,1840 21717,3041 23210,4535 24411,6614 25611,8693 26158,10734 26158,13135 Z"/>
       </g>
      </g>
      <g class="com.sun.star.drawing.ClosedBezierShape">
       <g id="id4">
        <rect class="BoundingBox" stroke="none" fill="none" x="4936" y="4737" width="16265" height="16265"/>
        <path fill="rgb(255,255,255)" stroke="none" d="M 20920,18844 L 17352,15277 17578,14674 C 17620,14562 17593,14435 17508,14350 L 16976,13818 C 16856,13698 16662,13698 16542,13818 L 15874,14486 14476,13089 17576,9989 C 17873,9691 18250,9463 18665,9329 19018,9215 19345,9016 19609,8752 20066,8295 20311,7688 20301,7043 20291,6397 20026,5799 19554,5356 19478,5284 19369,5257 19267,5283 19164,5310 19084,5387 19053,5488 L 18664,6733 C 18616,6887 18511,7012 18368,7087 18225,7163 18062,7177 17908,7129 17654,7050 17484,6819 17484,6554 17484,6493 17494,6432 17512,6373 L 17896,5143 C 17927,5041 17905,4931 17834,4851 17765,4770 17659,4733 17554,4750 17116,4821 16710,5012 16380,5302 15799,5813 15503,6576 15589,7343 15677,8130 15396,8913 14819,9490 L 12848,11461 8593,7206 8516,6371 C 8508,6277 8455,6191 8374,6140 L 6211,4784 C 6090,4708 5933,4725 5832,4826 L 5025,5633 C 4924,5734 4907,5891 4983,6012 L 6339,8175 C 6390,8256 6476,8309 6570,8317 L 7405,8394 11660,12649 8560,15748 C 8263,16046 7886,16275 7471,16408 7112,16524 6794,16718 6526,16986 6070,17443 5824,18050 5835,18695 5845,19340 6110,19939 6581,20382 6658,20454 6766,20481 6869,20454 6971,20427 7052,20350 7083,20250 L 7472,19005 C 7520,18851 7625,18725 7768,18650 7906,18577 8066,18561 8216,18605 8220,18606 8223,18608 8228,18609 8545,18708 8723,19047 8624,19364 L 8240,20595 C 8209,20696 8231,20806 8302,20887 8360,20954 8445,20992 8532,20992 8548,20992 8565,20991 8582,20988 9019,20917 9425,20726 9756,20436 10336,19925 10633,19162 10547,18394 10459,17608 10740,16825 11317,16247 L 13288,14277 14685,15675 14017,16343 C 13897,16463 13897,16657 14017,16777 L 14549,17309 C 14634,17394 14761,17421 14873,17379 L 15476,17153 19044,20721 C 19230,20907 19474,21000 19719,21000 19964,21000 20209,20907 20395,20721 L 20920,20196 C 21293,19823 21293,19216 20920,18844 Z M 15252,9923 C 15962,9214 16307,8248 16198,7275 16134,6707 16353,6141 16785,5762 16892,5668 17010,5588 17136,5523 L 16928,6191 C 16891,6309 16872,6431 16872,6554 16872,7088 17215,7554 17726,7714 18366,7914 19049,7555 19249,6915 L 19465,6222 C 19606,6472 19684,6756 19688,7053 19696,7531 19515,7980 19176,8318 18978,8517 18743,8660 18477,8746 17970,8909 17509,9189 17142,9556 L 14043,12655 13281,11894 15252,9923 Z M 10884,15814 C 10173,16524 9829,17490 9938,18462 10001,19031 9782,19596 9351,19975 9244,20070 9126,20149 9000,20214 L 9208,19547 C 9406,18912 9056,18235 8427,18029 8421,18027 8416,18025 8410,18024 8100,17927 7770,17957 7483,18108 7195,18259 6983,18512 6887,18822 L 6671,19516 C 6529,19265 6451,18981 6447,18685 6440,18207 6622,17758 6959,17419 7158,17221 7393,17077 7659,16992 8166,16828 8627,16548 8994,16181 L 12093,13082 12855,13844 10884,15814 Z M 7729,7852 C 7670,7793 7591,7762 7513,7762 7478,7762 7444,7769 7411,7779 L 6777,7721 5631,5893 6092,5432 7921,6578 7979,7212 C 7968,7245 7961,7279 7961,7314 7961,7395 7994,7472 8051,7530 L 15440,14919 15118,15241 7729,7852 Z M 15383,16533 L 14843,16736 14666,16560 16759,14467 16935,14644 16732,15184 15383,16533 Z M 20487,19763 L 19962,20288 C 19828,20421 19610,20421 19476,20288 L 15986,16797 16996,15787 20487,19277 C 20620,19411 20620,19629 20487,19763 Z"/>
       </g>
      </g>
     </g>
    </g>
   </g>
  </g>
 </g>
</svg>