<?xml version="1.0" encoding="UTF-8"?>
<!DOCTYPE svg PUBLIC "-//W3C//DTD SVG 1.1//EN" "http://www.w3.org/Graphics/SVG/1.1/DTD/svg11.dtd">
<svg version="1.2" width="262.5mm" height="371.25mm" viewBox="0 0 26250 37125" preserveAspectRatio="xMidYMid" fill-rule="evenodd" stroke-width="28.222" stroke-linejoin="round" xmlns="http://www.w3.org/2000/svg" xmlns:ooo="http://xml.openoffice.org/svg/export" xmlns:xlink="http://www.w3.org/1999/xlink" xmlns:presentation="http://sun.com/xmlns/staroffice/presentation" xmlns:smil="http://www.w3.org/2001/SMIL20/" xmlns:anim="urn:oasis:names:tc:opendocument:xmlns:animation:1.0" xml:space="preserve">
 <defs class="ClipPathGroup">
  <clipPath id="presentation_clip_path" clipPathUnits="userSpaceOnUse">
   <rect x="0" y="0" width="26250" height="37125"/>
  </clipPath>
  <clipPath id="presentation_clip_path_shrink" clipPathUnits="userSpaceOnUse">
   <rect x="26" y="37" width="26198" height="37051"/>
  </clipPath>
 </defs>
 <defs class="TextShapeIndex">
  <g ooo:slide="id1" ooo:id-list="id3 id4 id5"/>
 </defs>
 <defs class="EmbeddedBulletChars">
  <g id="bullet-char-template-57356" transform="scale(0.00048828125,-0.00048828125)">
   <path d="M 580,1141 L 1163,571 580,0 -4,571 580,1141 Z"/>
  </g>
  <g id="bullet-char-template-57354" transform="scale(0.00048828125,-0.00048828125)">
   <path d="M 8,1128 L 1137,1128 1137,0 8,0 8,1128 Z"/>
  </g>
  <g id="bullet-char-template-10146" transform="scale(0.00048828125,-0.00048828125)">
   <path d="M 174,0 L 602,739 174,1481 1456,739 174,0 Z M 1358,739 L 309,1346 659,739 1358,739 Z"/>
  </g>
  <g id="bullet-char-template-10132" transform="scale(0.00048828125,-0.00048828125)">
   <path d="M 2015,739 L 1276,0 717,0 1260,543 174,543 174,936 1260,936 717,1481 1274,1481 2015,739 Z"/>
  </g>
  <g id="bullet-char-template-10007" transform="scale(0.00048828125,-0.00048828125)">
   <path d="M 0,-2 C -7,14 -16,27 -25,37 L 356,567 C 262,823 215,952 215,954 215,979 228,992 255,992 264,992 276,990 289,987 310,991 331,999 354,1012 L 381,999 492,748 772,1049 836,1024 860,1049 C 881,1039 901,1025 922,1006 886,937 835,863 770,784 769,783 710,716 594,584 L 774,223 C 774,196 753,168 711,139 L 727,119 C 717,90 699,76 672,76 641,76 570,178 457,381 L 164,-76 C 142,-110 111,-127 72,-127 30,-127 9,-110 8,-76 1,-67 -2,-52 -2,-32 -2,-23 -1,-13 0,-2 Z"/>
  </g>
  <g id="bullet-char-template-10004" transform="scale(0.00048828125,-0.00048828125)">
   <path d="M 285,-33 C 182,-33 111,30 74,156 52,228 41,333 41,471 41,549 55,616 82,672 116,743 169,778 240,778 293,778 328,747 346,684 L 369,508 C 377,444 397,411 428,410 L 1163,1116 C 1174,1127 1196,1133 1229,1133 1271,1133 1292,1118 1292,1087 L 1292,965 C 1292,929 1282,901 1262,881 L 442,47 C 390,-6 338,-33 285,-33 Z"/>
  </g>
  <g id="bullet-char-template-9679" transform="scale(0.00048828125,-0.00048828125)">
   <path d="M 813,0 C 632,0 489,54 383,161 276,268 223,411 223,592 223,773 276,916 383,1023 489,1130 632,1184 813,1184 992,1184 1136,1130 1245,1023 1353,916 1407,772 1407,592 1407,412 1353,268 1245,161 1136,54 992,0 813,0 Z"/>
  </g>
  <g id="bullet-char-template-8226" transform="scale(0.00048828125,-0.00048828125)">
   <path d="M 346,457 C 273,457 209,483 155,535 101,586 74,649 74,723 74,796 101,859 155,911 209,963 273,989 346,989 419,989 480,963 531,910 582,859 608,796 608,723 608,648 583,586 532,535 482,483 420,457 346,457 Z"/>
  </g>
  <g id="bullet-char-template-8211" transform="scale(0.00048828125,-0.00048828125)">
   <path d="M -4,459 L 1135,459 1135,606 -4,606 -4,459 Z"/>
  </g>
  <g id="bullet-char-template-61548" transform="scale(0.00048828125,-0.00048828125)">
   <path d="M 173,740 C 173,903 231,1043 346,1159 462,1274 601,1332 765,1332 928,1332 1067,1274 1183,1159 1299,1043 1357,903 1357,740 1357,577 1299,437 1183,322 1067,206 928,148 765,148 601,148 462,206 346,322 231,437 173,577 173,740 Z"/>
  </g>
 </defs>
 <defs class="TextEmbeddedBitmaps"/>
 <g>
  <g id="id2" class="Master_Slide">
   <g id="bg-id2" class="Background"/>
   <g id="bo-id2" class="BackgroundObjects"/>
  </g>
 </g>
 <g class="SlideGroup">
  <g>
   <g id="container-id1">
    <g id="id1" class="Slide" clip-path="url(#presentation_clip_path)">
     <g class="Page">
      <g class="com.sun.star.drawing.ClosedBezierShape">
       <g id="id3">
        <rect class="BoundingBox" stroke="none" fill="none" x="73" y="92" width="26086" height="26086"/>
        <path fill="rgb(184,0,8)" stroke="none" d="M 26158,13135 C 26158,15536 25611,17577 24411,19656 23210,21736 21717,23229 19637,24430 17558,25630 15517,26177 13116,26177 10715,26177 8674,25630 6595,24430 4516,23229 3022,21736 1821,19656 621,17577 74,15536 74,13135 74,10734 621,8693 1821,6614 3022,4535 4516,3041 6595,1840 8674,640 10715,93 13116,93 15517,93 17558,640 19637,1840 21717,3041 23210,4535 24411,6614 25611,8693 26158,10734 26158,13135 Z"/>
       </g>
      </g>
      <g class="com.sun.star.drawing.ClosedBezierShape">
       <g id="id4">
        <rect class="BoundingBox" stroke="none" fill="none" x="5804" y="11629" width="5878" height="5878"/>
        <path fill="rgb(255,255,255)" stroke="none" d="M 8743,11630 C 7122,11630 5805,12947 5805,14567 5805,16188 7122,17505 8743,17505 10363,17505 11680,16188 11680,14567 11680,12947 10363,11630 8743,11630 Z M 11304,14381 L 9878,14381 C 9849,14200 9778,14034 9676,13892 L 10682,12885 C 11036,13293 11263,13810 11304,14381 Z M 8926,12006 C 9496,12047 10014,12273 10421,12625 L 9415,13632 C 9273,13529 9107,13458 8926,13429 L 8926,12006 Z M 8558,12006 L 8558,13429 C 8378,13458 8212,13529 8071,13632 L 7064,12625 C 7470,12273 7989,12047 8558,12006 Z M 6803,12885 L 7810,13892 C 7708,14034 7637,14200 7608,14381 L 6181,14381 C 6222,13810 6449,13293 6803,12885 Z M 6180,14749 L 7608,14749 C 7637,14928 7708,15095 7810,15236 L 6800,16246 C 6447,15839 6221,15319 6180,14749 Z M 8558,17129 C 7987,17088 7469,16861 7061,16507 L 8071,15497 C 8212,15600 8379,15670 8558,15699 L 8558,17129 Z M 7909,14564 C 7909,14104 8282,13730 8743,13730 9203,13730 9576,14104 9576,14564 9576,15025 9203,15398 8743,15398 8282,15398 7909,15025 7909,14564 Z M 8926,17129 L 8926,15699 C 9107,15670 9273,15600 9415,15497 L 10425,16507 C 10017,16861 9498,17088 8926,17129 Z M 10684,16246 L 9676,15236 C 9778,15095 9849,14928 9878,14749 L 11305,14749 C 11264,15319 11037,15839 10684,16246 Z"/>
       </g>
      </g>
      <g class="com.sun.star.drawing.ClosedBezierShape">
       <g id="id5">
        <rect class="BoundingBox" stroke="none" fill="none" x="3991" y="6617" width="17001" height="12702"/>
        <path fill="rgb(255,255,255)" stroke="none" d="M 20379,9256 C 20314,9256 20248,9266 20182,9284 L 19432,9491 18652,7592 C 18431,7055 17779,6617 17197,6617 L 9904,6617 C 9324,6617 8670,7055 8450,7592 L 7672,9489 6930,9284 C 6864,9266 6798,9256 6734,9256 6379,9256 6121,9527 6121,9901 L 6121,10343 C 6121,10427 6134,10508 6158,10583 4855,11431 3991,12899 3991,14567 3991,17187 6122,19318 8742,19318 10805,19318 12564,17997 13219,16155 L 17991,16155 17991,17097 C 17991,17533 18345,17887 18781,17887 L 19813,17887 C 20248,17887 20603,17533 20603,17097 L 20603,13326 C 20603,12785 20437,11939 20231,11440 L 20105,11134 20201,11134 C 20637,11134 20991,10779 20991,10343 L 20991,9901 C 20991,9527 20734,9256 20379,9256 Z M 9417,7833 C 9549,7511 9942,7248 10289,7248 L 16812,7248 C 17161,7248 17553,7511 17685,7833 L 18864,10705 C 18996,11026 18819,11289 18472,11289 L 12176,11289 C 11310,10383 10092,9816 8742,9816 8695,9816 8648,9818 8602,9820 L 9417,7833 Z M 8742,17942 C 6878,17942 5368,16431 5368,14567 5368,12704 6878,11193 8742,11193 10605,11193 12116,12704 12116,14567 12116,16431 10605,17942 8742,17942 Z M 19082,14336 C 19082,14510 18940,14653 18766,14653 L 16527,14653 C 16353,14653 16211,14510 16211,14336 L 16211,13262 C 16211,13088 16353,12945 16527,12945 L 18766,12945 C 18940,12945 19082,13088 19082,13262 L 19082,14336 Z"/>
       </g>
      </g>
     </g>
    </g>
   </g>
  </g>
 </g>
</svg>