<?xml version="1.0" encoding="utf-8"?>
<!-- Generator: Adobe Illustrator 18.0.0, SVG Export Plug-In . SVG Version: 6.00 Build 0)  -->
<!DOCTYPE svg PUBLIC "-//W3C//DTD SVG 1.1//EN" "http://www.w3.org/Graphics/SVG/1.1/DTD/svg11.dtd">
<svg version="1.1" id="Layer_1" xmlns="http://www.w3.org/2000/svg" xmlns:xlink="http://www.w3.org/1999/xlink" x="0px" y="0px"
	 viewBox="0 0 141.7 141.7" enable-background="new 0 0 141.7 141.7" xml:space="preserve">
<circle fill="#FFFFFF" cx="70.8" cy="70.9" r="70.4"/>
<polyline fill="none" stroke="#1B9DD9" stroke-width="3" stroke-linecap="round" stroke-linejoin="round" stroke-miterlimit="22.9256" points="
	107.7,102.7 107.7,37 107.7,37 33.1,37 33.1,102.7 "/>
<line fill="none" stroke="#1B9DD9" stroke-width="3" stroke-linecap="round" stroke-linejoin="round" stroke-miterlimit="22.9256" x1="107.7" y1="52.6" x2="33.1" y2="52.6"/>
<path fill="none" stroke="#1B9DD9" stroke-width="3" stroke-linecap="round" stroke-linejoin="round" stroke-miterlimit="22.9256" d="
	M98.4,43.6c-0.9,0-1.6,0.7-1.6,1.6s0.7,1.6,1.6,1.6c0.9,0,1.6-0.7,1.6-1.6S99.3,43.6,98.4,43.6L98.4,43.6z"/>
<path fill="none" stroke="#1B9DD9" stroke-width="3" stroke-linecap="round" stroke-linejoin="round" stroke-miterlimit="22.9256" d="
	M87.7,43.6c-0.9,0-1.6,0.7-1.6,1.6s0.7,1.6,1.6,1.6c0.9,0,1.6-0.7,1.6-1.6C89.3,44.3,88.6,43.6,87.7,43.6L87.7,43.6z"/>
<line fill="none" stroke="#1B9DD9" stroke-width="3" stroke-linecap="round" stroke-linejoin="round" stroke-miterlimit="22.9256" x1="70.3" y1="95.5" x2="70.3" y2="64"/>
<line fill="none" stroke="#1B9DD9" stroke-width="3" stroke-linecap="round" stroke-linejoin="round" stroke-miterlimit="22.9256" x1="70" y1="95.7" x2="60.3" y2="86"/>
<line fill="none" stroke="#1B9DD9" stroke-width="3" stroke-linecap="round" stroke-linejoin="round" stroke-miterlimit="22.9256" x1="79.8" y1="86" x2="70" y2="95.7"/>
<line fill="none" stroke="#1B9DD9" stroke-width="3" stroke-linecap="round" stroke-linejoin="round" stroke-miterlimit="22.9256" x1="60.3" y1="103.2" x2="33.3" y2="103.2"/>
<line fill="none" stroke="#1B9DD9" stroke-width="3" stroke-linecap="round" stroke-linejoin="round" stroke-miterlimit="22.9256" x1="107.5" y1="103" x2="80.5" y2="103"/>
</svg>
