<?xml version="1.0" encoding="utf-8"?>
<!-- Generator: Adobe Illustrator 18.0.0, SVG Export Plug-In . SVG Version: 6.00 Build 0)  -->
<!DOCTYPE svg PUBLIC "-//W3C//DTD SVG 1.1//EN" "http://www.w3.org/Graphics/SVG/1.1/DTD/svg11.dtd">
<svg version="1.1" id="Layer_1" xmlns="http://www.w3.org/2000/svg" xmlns:xlink="http://www.w3.org/1999/xlink" x="0px" y="0px"
	 viewBox="0 0 141.7 141.7" enable-background="new 0 0 141.7 141.7" xml:space="preserve">
<circle fill="#FFFFFF" cx="70.8" cy="70.9" r="70.4"/>
<line fill="none" stroke="#1B9DD9" stroke-width="3" stroke-linecap="round" stroke-linejoin="round" stroke-miterlimit="22.9256" x1="29.7" y1="97.8" x2="70" y2="97.8"/>
<polyline fill="none" stroke="#1B9DD9" stroke-width="3" stroke-linecap="round" stroke-linejoin="round" stroke-miterlimit="22.9256" points="
	32.7,97.3 32.7,62.4 46.1,62.4 46.1,97.3 "/>
<polyline fill="none" stroke="#1B9DD9" stroke-width="3" stroke-linecap="round" stroke-linejoin="round" stroke-miterlimit="22.9256" points="
	53.9,97.3 53.9,47.3 67.3,47.3 67.3,97.3 "/>
<polyline fill="none" stroke="#1B9DD9" stroke-width="3" stroke-linecap="round" stroke-linejoin="round" stroke-miterlimit="22.9256" points="
	75.3,73.6 75.3,31 88.7,31 88.7,67.1 "/>
<path fill="none" stroke="#1B9DD9" stroke-width="3" stroke-linecap="round" stroke-linejoin="round" stroke-miterlimit="22.9256" d="
	M90.2,68C78.5,68,69,77.5,69,89.2c0,11.7,9.5,21.2,21.2,21.2c11.7,0,21.2-9.5,21.2-21.2S101.9,68,90.2,68L90.2,68z"/>
<path fill="none" stroke="#1B9DD9" stroke-width="3" stroke-linecap="round" stroke-linejoin="round" stroke-miterlimit="22.9256" d="
	M98.2,80c-1.7,0.7-15.1,15.6-17.5,17.8"/>
<polyline fill="none" stroke="#1B9DD9" stroke-width="3" stroke-linecap="round" stroke-linejoin="round" stroke-miterlimit="22.9256" points="
	98.2,95.1 98.2,80 83.1,80 "/>
</svg>
