<?xml version="1.0" encoding="utf-8"?>
<!-- Generator: Adobe Illustrator 18.0.0, SVG Export Plug-In . SVG Version: 6.00 Build 0)  -->
<!DOCTYPE svg PUBLIC "-//W3C//DTD SVG 1.1//EN" "http://www.w3.org/Graphics/SVG/1.1/DTD/svg11.dtd">
<svg version="1.1" id="Layer_1" xmlns="http://www.w3.org/2000/svg" xmlns:xlink="http://www.w3.org/1999/xlink" x="0px" y="0px"
	 viewBox="0 0 21 25.5" enable-background="new 0 0 21 25.5" xml:space="preserve">
<path fill="#FFFFFF" d="M17.8,3.9C15.9,2,13.4,1,10.7,1C8.1,1,5.6,2,3.7,3.9C1.8,5.8,0.8,8.3,0.8,11c0,2.7,1,5.2,2.9,7.1l6,6.5
	c0.3,0.3,0.7,0.5,1.1,0.5c0.4,0,0.8-0.2,1.1-0.5l6-6.5c1.9-1.9,2.9-4.4,2.9-7.1C20.8,8.3,19.7,5.8,17.8,3.9z M16.4,16.7l-5.6,6.1
	l-5.7-6.1c-1.5-1.5-2.3-3.5-2.3-5.7s0.8-4.1,2.3-5.7C6.6,3.8,8.6,3,10.7,3c2.1,0,4.1,0.8,5.7,2.3c1.5,1.5,2.3,3.5,2.3,5.7
	C18.7,13.1,17.9,15.1,16.4,16.7z M10.7,7C9.7,7,8.7,7.4,7.9,8.2C7.2,8.9,6.7,9.9,6.7,11c0,2.2,1.8,4,4,4c2.2,0,4-1.8,4-4
	S13,7,10.7,7z M10.7,13L10.7,13c-1.1,0-2-0.9-2-2c0-0.5,0.2-1,0.6-1.4C9.7,9.2,10.2,9,10.8,9c1.1,0,2,0.9,2,2
	C12.7,12.1,11.9,13,10.7,13z"/>
</svg>
