<?xml version="1.0" encoding="iso-8859-1"?>
<!-- Generator: Adobe Illustrator 19.0.0, SVG Export Plug-In . SVG Version: 6.00 Build 0)  -->
<svg xmlns="http://www.w3.org/2000/svg" xmlns:xlink="http://www.w3.org/1999/xlink" version="1.1" id="Layer_1" x="0px" y="0px" viewBox="0 0 512 512" style="enable-background:new 0 0 512 512;" xml:space="preserve" width="512px" height="512px">
<g>
	<g>
		<path d="M340.932,210.697L264.052,77.534c-1.661-2.876-4.729-4.649-8.052-4.649c-3.322,0-6.391,1.773-8.052,4.649l-76.883,133.163    c-1.661,2.876-1.661,6.422,0,9.298c1.661,2.876,4.731,4.649,8.052,4.649h153.764c3.322,0,6.391-1.773,8.052-4.649    C342.594,217.119,342.594,213.573,340.932,210.697z M195.221,206.048L256,100.778l60.777,105.27H195.221z" fill="#900000"/>
	</g>
</g>
<g>
	<g>
		<path d="M340.934,292.005c-1.661-2.876-4.729-4.649-8.052-4.649H179.117c-3.322,0-6.391,1.773-8.052,4.649    c-1.661,2.876-1.661,6.422,0,9.298l19.799,34.293c2.569,4.448,8.256,5.972,12.701,3.403c4.447-2.567,5.97-8.254,3.403-12.701    l-11.747-20.346h121.556L256,411.222l-30.656-53.097c-2.566-4.447-8.256-5.97-12.701-3.403c-4.447,2.567-5.97,8.254-3.403,12.701    l38.707,67.044c1.661,2.876,4.729,4.649,8.052,4.649c3.322,0,6.391-1.773,8.052-4.649l76.882-133.163    C342.595,298.427,342.595,294.881,340.934,292.005z" fill="#900000"/>
	</g>
</g>
<g>
	<g>
		<path d="M407.245,0H187.816c-5.136,0-9.298,4.163-9.298,9.298c0,5.135,4.162,9.298,9.298,9.298h210.131v399.806    c0,5.135,4.162,9.298,9.298,9.298s9.298-4.163,9.298-9.298V9.298C416.542,4.163,412.381,0,407.245,0z" fill="#900000"/>
	</g>
</g>
<g>
	<g>
		<path d="M407.245,441.337c-5.136,0-9.298,4.163-9.298,9.298v42.77H114.053V18.596h34.092c5.136,0,9.298-4.163,9.298-9.298    c0-5.135-4.162-9.298-9.298-9.298h-43.39c-5.136,0-9.298,4.163-9.298,9.298v493.404c0,5.135,4.162,9.298,9.298,9.298h302.489    c5.136,0,9.298-4.163,9.298-9.298v-52.068C416.542,445.5,412.381,441.337,407.245,441.337z" fill="#900000"/>
	</g>
</g>
<g>
</g>
<g>
</g>
<g>
</g>
<g>
</g>
<g>
</g>
<g>
</g>
<g>
</g>
<g>
</g>
<g>
</g>
<g>
</g>
<g>
</g>
<g>
</g>
<g>
</g>
<g>
</g>
<g>
</g>
</svg>
